<?xml version="1.0" encoding="UTF-8"?>
<svg version="1.1" xmlns="http://www.w3.org/2000/svg" width="1024" height="1024">
<path d="M0 0 C337.92 0 675.84 0 1024 0 C1024 337.92 1024 675.84 1024 1024 C686.08 1024 348.16 1024 0 1024 C0 686.08 0 348.16 0 0 Z " fill="#FCFDFD" transform="translate(0,0)"/>
<path d="M0 0 C1.43933245 -0.00187062 2.8786644 -0.00417232 4.31799555 -0.00686532 C8.25539765 -0.01295899 12.19277844 -0.0128526 16.13018417 -0.01167095 C20.38397292 -0.01146632 24.63775494 -0.01699173 28.89154053 -0.02172852 C37.21996733 -0.03002292 45.54838705 -0.03278283 53.87681764 -0.03334089 C60.65134401 -0.03381675 67.42586805 -0.03587498 74.20039368 -0.03904152 C93.4292402 -0.04784578 112.65808114 -0.0524614 131.88692969 -0.05171105 C132.92282322 -0.05167109 133.95871674 -0.05163113 135.02600098 -0.05158997 C136.06316736 -0.05154909 137.10033373 -0.0515082 138.1689294 -0.05146609 C154.96338452 -0.05105996 171.75781719 -0.06062154 188.55226582 -0.07472833 C205.8180939 -0.08911597 223.08391105 -0.09599716 240.34974527 -0.09513456 C250.03445795 -0.09480335 259.71914711 -0.09751675 269.40385437 -0.10831261 C277.6526711 -0.11744919 285.90145365 -0.11956714 294.15027326 -0.11280318 C298.35286878 -0.10955349 302.55539882 -0.10942464 306.75798798 -0.11815643 C345.01392405 -0.19267332 345.01392405 -0.19267332 363.18225098 4.38371277 C364.49781982 4.70903992 364.49781982 4.70903992 365.83996582 5.04093933 C416.99968814 18.02245342 458.48393772 50.16281797 485.50158691 95.40397644 C504.79130006 128.50780474 509.2242747 163.1320336 509.13692498 200.68186355 C509.13006158 205.05686403 509.14065136 209.43183033 509.14886475 213.80682373 C509.16212746 222.35067667 509.15935788 230.89445006 509.15062682 239.43830597 C509.14382107 246.38894111 509.14294598 253.33955413 509.14619827 260.29019165 C509.14665797 261.2836128 509.14711767 262.27703395 509.1475913 263.30055878 C509.14855058 265.31937047 509.14952323 267.33818217 509.15050907 269.35699385 C509.15904111 288.23837617 509.14926329 307.11971463 509.13310798 326.00108975 C509.1197068 342.16332067 509.12203551 358.32548692 509.13586426 374.48771667 C509.15195885 393.30663951 509.15821734 412.12552401 509.14902747 430.94445276 C509.14807193 432.9553798 509.14712882 434.96630684 509.14619827 436.97723389 C509.14573545 437.9663637 509.14527262 438.95549351 509.14479577 439.97459695 C509.14221749 446.90797032 509.14655165 453.84131915 509.15363693 460.77468872 C509.16209539 469.23690467 509.15968121 477.69903726 509.1437947 486.1612438 C509.13597 490.46962399 509.13271986 494.77786576 509.14274216 499.08624458 C509.19028047 521.38868189 508.44916717 542.65436057 501.74475098 564.13371277 C501.52367676 564.86461121 501.30260254 565.59550964 501.0748291 566.34855652 C492.97750804 592.72519585 478.86546176 615.54586296 460.74475098 636.13371277 C460.09635254 636.90457214 459.4479541 637.67543152 458.77990723 638.46965027 C454.79542889 643.18597157 450.50697373 647.21144112 445.74475098 651.13371277 C445.21317383 651.57763367 444.68159668 652.02155457 444.13391113 652.47892761 C435.71040411 659.49427069 427.24255011 665.62930645 417.74475098 671.13371277 C416.80631348 671.71507996 415.86787598 672.29644714 414.90100098 672.89543152 C391.32221924 687.30828574 361.16172224 697.24409314 333.35270786 697.26234722 C332.10506548 697.26557167 330.85742311 697.26879611 329.57197338 697.27211827 C328.20049375 697.27064735 326.82901422 697.26907965 325.45753479 697.26742554 C323.99034216 697.26929496 322.52315003 697.27159619 321.05595869 697.27429086 C317.0322964 697.28039937 313.00865491 697.28027637 308.98498905 697.27909648 C304.64188561 697.27889223 300.29878881 697.28441375 295.95568848 697.28915405 C287.44818398 697.29745688 278.94068641 697.30020876 270.43317819 697.30076643 C263.51366786 697.30124194 256.59415981 697.30329843 249.67465019 697.30646706 C230.04155904 697.31527404 210.40847335 697.31988658 190.7753802 697.31913658 C189.18808617 697.31907665 189.18808617 697.31907665 187.56872559 697.3190155 C185.97948459 697.31895418 185.97948459 697.31895418 184.35813772 697.31889162 C167.20398786 697.31848555 150.04986 697.32804528 132.8957165 697.34215387 C115.26722261 697.35653769 97.63873944 697.36342289 80.01023954 697.36256009 C70.11929009 697.36222873 60.22836366 697.36494903 50.33741951 697.37573814 C41.91212452 697.38486974 33.48686298 697.38699677 25.06156517 697.38022872 C20.76797098 697.37697638 16.47444088 697.3768599 12.18085289 697.38558197 C8.23947195 697.39350566 4.2982053 697.39195641 0.35682695 697.38329784 C-1.05844825 697.3817756 -2.47373224 697.38352996 -3.88899707 697.38915791 C-17.48300568 697.43957441 -30.83091341 696.26490529 -43.94274902 692.50871277 C-44.86426758 692.24856384 -45.78578613 691.98841492 -46.73522949 691.72038269 C-95.4423377 677.5759977 -137.51130928 645.65465634 -162.48181152 601.23918152 C-164.48849908 597.57696517 -166.38605071 593.86790896 -168.25524902 590.13371277 C-168.71544434 589.22492371 -169.17563965 588.31613464 -169.64978027 587.37980652 C-178.67236058 568.61856811 -185.35516388 545.52821907 -185.3894701 524.66751862 C-185.39392794 523.40329276 -185.39838579 522.1390669 -185.40297872 520.83653116 C-185.40288944 519.44629319 -185.40269962 518.05605521 -185.40242004 516.66581726 C-185.4057225 515.1788643 -185.40944887 513.69191224 -185.41356152 512.2049613 C-185.42354705 508.1264082 -185.42729277 504.04786982 -185.42995083 499.96930623 C-185.43386438 495.56676059 -185.44344224 491.16422648 -185.4521637 486.76168823 C-185.47190278 476.13036334 -185.48199296 465.49903754 -185.49089149 454.86769891 C-185.49528026 449.85282851 -185.50064569 444.83795917 -185.50588036 439.8230896 C-185.52289323 423.13623016 -185.53738389 406.44937136 -185.5446291 389.76250458 C-185.5465388 385.43458048 -185.54845915 381.10665638 -185.55041504 376.7787323 C-185.55089878 375.70313079 -185.55138252 374.62752928 -185.55188092 373.51933378 C-185.56016803 356.12416127 -185.58548235 338.72905782 -185.61799572 321.33391541 C-185.6511543 303.44661508 -185.66908595 285.55934973 -185.67227334 267.67201853 C-185.67443076 257.64052453 -185.68306574 247.60913113 -185.70873451 237.57766724 C-185.73056239 229.02775067 -185.73843319 220.47795912 -185.72876773 211.92801785 C-185.72425719 207.57474926 -185.72591687 203.22173791 -185.74552917 198.86850548 C-185.96263726 147.79323802 -173.12108671 100.10106439 -137.25524902 62.13371277 C-136.14665215 60.82495257 -135.04233928 59.51254918 -133.94274902 58.19621277 C-100.99990643 20.77135078 -49.30446824 -0.0609891 0 0 Z " fill="#1E4109" transform="translate(350.2552490234375,162.8662872314453)"/>
<path d="M0 0 C5.4258101 -0.19856579 10.8494835 -0.34329525 16.27807617 -0.43945312 C18.1222011 -0.47955334 19.96607374 -0.53405166 21.80932617 -0.60351562 C24.46856945 -0.70118159 27.12443983 -0.74605455 29.78515625 -0.78125 C30.60210464 -0.82254028 31.41905304 -0.86383057 32.26075745 -0.90637207 C34.74054795 -0.90829242 36.64990055 -0.80896783 39 0 C40.46629333 1.79907227 40.46629333 1.79907227 41.8984375 3.98632812 C44.43943594 7.25327093 45.67228147 7.9354426 49.81163025 8.75085449 C54.81730382 9.1284653 59.82392986 9.05705604 64.83984375 9 C66.69073692 9.00752337 68.54161885 9.01856158 70.39247131 9.03295898 C75.24753827 9.06133122 80.10128279 9.04214355 84.95629883 9.01287842 C89.91691627 8.99144917 94.8772974 9.01523425 99.83789062 9.03515625 C109.55889175 9.06756181 119.27909604 9.04969958 129 9 C129.07037604 16.86871198 129.12324575 24.73734641 129.15543652 32.60629654 C129.17090816 36.26254867 129.19179433 39.91858123 129.22631836 43.57470703 C129.4264259 65.35019257 128.53818175 86.05322335 122 107 C121.66838867 108.09634766 121.66838867 108.09634766 121.33007812 109.21484375 C113.23275706 135.59148308 99.12071078 158.41215019 81 179 C80.02740234 180.15628906 80.02740234 180.15628906 79.03515625 181.3359375 C75.05067791 186.0522588 70.76222275 190.07772835 66 194 C65.46842285 194.4439209 64.9368457 194.8878418 64.38916016 195.34521484 C55.96565313 202.36055792 47.49779913 208.49559368 38 214 C37.0615625 214.58136719 36.123125 215.16273438 35.15625 215.76171875 C14.17519551 228.58667651 -8.87881233 235.13365594 -33 239 C-33.9600293 239.17869629 -34.92005859 239.35739258 -35.90917969 239.54150391 C-41.90176188 240.3809047 -47.99130079 240.12165442 -54.02734375 240.09765625 C-55.38497363 240.0957884 -56.74260419 240.09436623 -58.10023499 240.09336853 C-61.65282084 240.08957222 -65.20536504 240.07976696 -68.75793457 240.06866455 C-72.39135169 240.05838801 -76.02477562 240.0538576 -79.65820312 240.04882812 C-86.77215233 240.03814177 -93.88607343 240.02110049 -101 240 C-100.99476318 239.02804687 -100.98952637 238.05609375 -100.98413086 237.0546875 C-100.93989548 227.87404154 -100.93786181 218.6942159 -100.97665405 209.51353455 C-100.995253 204.79401219 -100.99922307 200.07544062 -100.96923828 195.35595703 C-100.94082166 190.79721524 -100.95151541 186.24005766 -100.98880005 181.68139648 C-100.99622003 179.94637371 -100.98978406 178.21123207 -100.96896362 176.47631836 C-100.52874517 166.98146536 -100.52874517 166.98146536 -103.82019043 158.44006348 C-105.24179537 157.16118074 -106.70130689 155.92276775 -108.20092773 154.73632812 C-110.4107454 152.60357969 -110.65793593 151.44669736 -110.90820312 148.41992188 C-110.90695651 146.76898928 -110.86291874 145.11766183 -110.78125 143.46875 C-110.76993042 142.59222778 -110.75861084 141.71570557 -110.74694824 140.81262207 C-110.7025049 138.03943165 -110.60222326 135.27160048 -110.5 132.5 C-110.45983068 130.60945021 -110.42333596 128.71881855 -110.390625 126.828125 C-110.30287711 122.21671555 -110.16507003 117.60926303 -110 113 C-108.99324219 112.9906543 -107.98648438 112.98130859 -106.94921875 112.97167969 C-103.13174823 112.93111475 -99.3150289 112.86519203 -95.49804688 112.79248047 C-93.86142799 112.76464899 -92.22468413 112.7432513 -90.58789062 112.72900391 C-65.22182261 112.49528706 -43.3790439 105.04096784 -25 87 C-24.31164062 86.33613281 -23.62328125 85.67226563 -22.9140625 84.98828125 C-8.79104866 70.33495662 -1.10346995 49.20628263 -0.68359375 29.1015625 C-0.6524221 27.84912247 -0.6524221 27.84912247 -0.62062073 26.57138062 C-0.55560531 23.9226651 -0.49646509 21.27385641 -0.4375 18.625 C-0.39426904 16.82160522 -0.35065334 15.01821962 -0.30664062 13.21484375 C-0.19997361 8.80998961 -0.09857305 4.4050424 0 0 Z " fill="#438932" transform="translate(730,620)"/>
<path d="M0 0 C1.64578903 0.0013982 3.29209382 0.05069231 4.93530273 0.14282227 C6.24796364 0.16192406 6.24796364 0.16192406 7.58714294 0.18141174 C10.35068871 0.23133663 13.10737758 0.34411495 15.86889648 0.45922852 C17.75486853 0.50442963 19.64094476 0.54548433 21.52709961 0.58227539 C26.12279379 0.6808899 30.7134379 0.83584953 35.30639648 1.02172852 C35.32621582 2.07972656 35.34603516 3.13772461 35.36645508 4.2277832 C35.44338289 8.20895453 35.53195398 12.18980106 35.6237793 16.1706543 C35.66171339 17.88315347 35.69662333 19.59572274 35.72827148 21.30834961 C36.2343642 48.36849464 42.86943952 69.53062961 62.30639648 89.02172852 C63.08756836 89.82610352 63.86874023 90.63047852 64.67358398 91.45922852 C76.87746376 103.29329375 91.75990564 109.39284679 108.30639648 112.02172852 C108.30639648 112.68172852 108.30639648 113.34172852 108.30639648 114.02172852 C120.84639648 114.02172852 133.38639648 114.02172852 146.30639648 114.02172852 C146.49067225 119.59351116 146.64964919 125.15464132 146.74584961 130.72705078 C146.78595635 132.61966857 146.84045937 134.51204038 146.90991211 136.40380859 C147.00754609 139.13253473 147.05244548 141.85797428 147.08764648 144.58813477 C147.12893677 145.42695694 147.17022705 146.26577911 147.21276855 147.13002014 C147.21467698 149.65765232 147.11630971 151.62175585 146.30639648 154.02172852 C144.50732422 155.52452087 144.50732422 155.52452087 142.32006836 156.97485352 C139.10616574 159.46476058 138.38040404 160.65759983 137.55554199 164.71604919 C137.17878422 169.54204963 137.24927293 174.36874536 137.30639648 179.20532227 C137.29887264 180.98895534 137.28783401 182.77257676 137.2734375 184.5561676 C137.24507185 189.23370084 137.26424823 193.909861 137.29351807 198.58734131 C137.31495148 203.3669927 137.29116059 208.1463991 137.27124023 212.92602539 C137.23883948 222.29156913 137.25669038 231.65628566 137.30639648 241.02172852 C129.49895577 241.06850951 121.69154921 241.10382622 113.88400269 241.12535286 C110.25684585 241.13569566 106.62978637 241.14967593 103.00268555 241.17260742 C66.08201225 241.39944719 66.08201225 241.39944719 48.61889648 236.39672852 C47.69737793 236.13657959 46.77585937 235.87643066 45.82641602 235.60839844 C-2.88069219 221.46401345 -44.94966377 189.54267209 -69.92016602 145.12719727 C-71.92685357 141.46498092 -73.8244052 137.75592471 -75.69360352 134.02172852 C-76.38389648 132.65854492 -76.38389648 132.65854492 -77.08813477 131.26782227 C-86.13626326 112.45345984 -92.84855535 89.27240461 -92.80712891 68.35205078 C-92.80705338 67.07125137 -92.80697784 65.79045197 -92.80690002 64.47084045 C-92.80179497 63.09327149 -92.796579 61.71570292 -92.79125977 60.33813477 C-92.78939212 58.91324412 -92.78796985 57.48835283 -92.78697205 56.0634613 C-92.78317418 52.33332512 -92.77336753 48.60322856 -92.76226807 44.87310791 C-92.75199493 41.05872127 -92.74746183 37.24432816 -92.74243164 33.42993164 C-92.73174253 25.96051264 -92.71469932 18.49112615 -92.69360352 11.02172852 C-91.723871 11.02918594 -90.75413849 11.03664337 -89.75502014 11.04432678 C-80.5894064 11.10891226 -71.42475934 11.12586142 -62.25895023 11.09688663 C-57.54717597 11.08350356 -52.83663685 11.08655462 -48.125 11.12792969 C-43.57265085 11.1672886 -39.0222432 11.16247687 -34.46987724 11.12780571 C-32.73844756 11.12223246 -31.00689139 11.13223185 -29.27565193 11.15849495 C-19.57079596 11.57379151 -19.57079596 11.57379151 -10.90782166 7.97569275 C-9.44673854 6.37144458 -8.02603236 4.7291372 -6.65577698 3.04664612 C-4.36526982 0.68289574 -3.23546752 0.29775398 0 0 Z " fill="#5FA343" transform="translate(257.693603515625,618.978271484375)"/>
<path d="M0 0 C7.80636752 -0.05126018 15.61269068 -0.08596535 23.41918945 -0.10986328 C26.06770893 -0.11869703 28.71600366 -0.13342533 31.36450195 -0.15087891 C49.39436394 -0.26660768 66.84870715 -0.18040832 84.4375 4.25 C85.75306885 4.57532715 85.75306885 4.57532715 87.09521484 4.90722656 C138.25493716 17.88874065 179.73918675 50.0291052 206.75683594 95.27026367 C225.54791606 127.51836841 230.55830313 161.4337468 230.20599365 198.11413574 C230.17475564 201.72186875 230.16148815 205.32966943 230.14648438 208.9375 C230.11475022 215.95849272 230.06386653 222.9792196 230 230 C228.48236305 229.99547569 228.48236305 229.99547569 226.93406677 229.99085999 C217.385219 229.9669548 207.83702995 229.97983859 198.28826809 230.02846622 C193.37938363 230.05229009 188.47117741 230.06328569 183.56225586 230.04467773 C178.82207077 230.02718614 174.08310239 230.04376625 169.34306526 230.08367729 C167.53745686 230.09295018 165.73174274 230.09007836 163.92617607 230.07469368 C152.81355271 229.53079331 152.81355271 229.53079331 143.39868164 234.43139648 C142.01857558 236.24686331 141.01844983 237.96310033 140 240 C127.13 240 114.26 240 101 240 C100.97421875 237.009375 100.9484375 234.01875 100.921875 230.9375 C100.88327176 227.98493733 100.83817107 225.03253867 100.79248047 222.08007812 C100.76455637 220.05542054 100.7432026 218.03065973 100.72900391 216.00585938 C100.61415967 200.54016859 99.81224454 185.68471054 92.3125 171.75 C91.9721875 171.09580078 91.631875 170.44160156 91.28125 169.76757812 C79.57374452 147.94904518 61.17208987 134.36782456 37.81640625 126.7265625 C31.58960119 125.12020225 25.39431474 124.81792034 19.00390625 124.68359375 C17.75358864 124.6524221 17.75358864 124.6524221 16.47801208 124.62062073 C13.83958439 124.55572144 11.20106509 124.49652022 8.5625 124.4375 C6.76366276 124.39425794 4.96483446 124.35064192 3.16601562 124.30664062 C-1.2225646 124.20010201 -5.6112361 124.09867025 -10 124 C-10.22412857 119.03813826 -10.38652741 114.079278 -10.49438477 109.11352539 C-10.53937863 107.42843257 -10.6006011 105.74368586 -10.67895508 104.05981445 C-10.78939487 101.62364256 -10.83941894 99.19214206 -10.87890625 96.75390625 C-10.92535782 96.01290176 -10.97180939 95.27189728 -11.01966858 94.50843811 C-11.02198474 92.0550031 -10.86601994 90.30632038 -10 88 C-7.9750824 86.09153748 -7.9750824 86.09153748 -5.51367188 84.08789062 C-1.761895 80.63455028 -0.41535354 78.13053141 0.02552032 73.00431061 C0.18234583 68.94491599 0.15926464 64.90101285 0.09765625 60.83984375 C0.10331616 59.0814905 0.11293608 57.32314596 0.12632751 55.56483459 C0.15084047 50.96275114 0.12195447 46.36253028 0.08154297 41.76062012 C0.04979877 37.05454327 0.06910748 32.34869766 0.08398438 27.64257812 C0.10565756 18.42790583 0.07086044 9.21439319 0 0 Z " fill="#62A643" transform="translate(629,163)"/>
<path d="M0 0 C1.29683212 0.00141495 2.59366425 0.0028299 3.92979431 0.00428772 C7.34754426 0.00807308 10.7652505 0.01786848 14.1829834 0.0289917 C17.6825298 0.03929228 21.18208338 0.04380371 24.68164062 0.04882812 C31.52605942 0.05949506 38.37044948 0.07652255 45.21484375 0.09765625 C45.20960693 1.08213745 45.20437012 2.06661865 45.19897461 3.08093262 C45.15474181 12.37930446 45.15270338 21.67686636 45.1914978 30.97527313 C45.21009777 35.75532547 45.21406457 40.53443904 45.18408203 45.31445312 C45.15566825 49.93154266 45.16635607 54.54706786 45.2036438 59.16407776 C45.21106454 60.92142927 45.20462569 62.67889811 45.18380737 64.43614197 C44.74561881 74.04118434 44.74561881 74.04118434 48.03503418 82.70947266 C50.18227659 84.71946032 50.18227659 84.71946032 52.41577148 86.43615723 C54.54311352 88.40082357 54.85844685 89.37323412 55.12304688 92.21875 C55.12180456 93.65817373 55.07801913 95.09806528 54.99609375 96.53515625 C54.98477417 97.30069824 54.97345459 98.06624023 54.96179199 98.85498047 C54.9174236 101.27188357 54.81718136 103.6825853 54.71484375 106.09765625 C54.67466363 107.74730938 54.6381708 109.39705668 54.60546875 111.046875 C54.51782426 115.06614821 54.38009187 119.08085575 54.21484375 123.09765625 C53.31467529 123.10700195 52.41450684 123.11634766 51.48706055 123.12597656 C18.43142328 123.5566139 -9.14156983 126.57235905 -33.78515625 151.09765625 C-49.21506111 167.47748869 -56.64418877 187.95493111 -57.1015625 210.3125 C-57.13273415 211.59611168 -57.13273415 211.59611168 -57.16453552 212.90565491 C-57.22945579 215.61541401 -57.28864603 218.32526265 -57.34765625 221.03515625 C-57.3908963 222.88217039 -57.43451226 224.72917577 -57.47851562 226.57617188 C-57.58507744 231.08324366 -57.68650362 235.59040469 -57.78515625 240.09765625 C-63.19259807 240.32130963 -68.59731231 240.48397494 -74.00830078 240.59204102 C-75.84569215 240.63711154 -77.6827641 240.69839156 -79.51904297 240.77661133 C-82.17104899 240.88669188 -84.81877119 240.93700387 -87.47265625 240.9765625 C-88.69033691 241.04623985 -88.69033691 241.04623985 -89.93261719 241.11732483 C-92.49653888 241.11955873 -94.37373186 240.99198091 -96.78515625 240.09765625 C-98.50036621 238.07273865 -98.50036621 238.07273865 -100.22460938 235.61132812 C-102.9407583 232.22537531 -104.26950631 231.21209935 -108.56933594 230.25779724 C-113.39792479 229.8441319 -118.22535311 229.92772764 -123.06640625 230 C-124.84860877 229.99434164 -126.63080271 229.98472379 -128.41296387 229.97132874 C-133.08245475 229.94678991 -137.75011308 229.97572954 -142.41943359 230.01611328 C-147.19244531 230.04783035 -151.9652276 230.02855426 -156.73828125 230.01367188 C-166.0877118 229.99198428 -175.43600051 230.02683656 -184.78515625 230.09765625 C-184.8792417 222.4111845 -184.94960385 214.72485603 -184.99240494 207.03794765 C-185.01298241 203.4657605 -185.04072633 199.89397658 -185.08691406 196.32202148 C-185.7163315 146.27925219 -171.74599724 99.10698401 -136.78515625 62.09765625 C-135.67655938 60.78889605 -134.57224651 59.47649266 -133.47265625 58.16015625 C-100.7497514 20.9851555 -49.06279891 -0.20354218 0 0 Z " fill="#85C359" transform="translate(349.78515625,162.90234375)"/>
<path d="M0 0 C28.25737203 -0.16065467 28.25737203 -0.16065467 42.27343559 -0.20101547 C49.83620191 -0.22313119 57.39879064 -0.25115297 64.96142578 -0.30175781 C71.59446016 -0.34612086 78.22735328 -0.3691711 84.8605423 -0.37950897 C87.38496167 -0.38687162 89.90937111 -0.40124887 92.43370819 -0.42292023 C95.98305073 -0.45216578 99.53161011 -0.45594706 103.08105469 -0.45410156 C104.11324631 -0.46848267 105.14543793 -0.48286377 106.20890808 -0.49768066 C118.39105385 -0.42961458 130.1114069 3.80147686 139.22265625 12 C146.72862593 19.85671592 151.13159213 29.27677471 151.12025452 40.19490051 C151.12231651 41.73237946 151.12231651 41.73237946 151.12442017 43.30091858 C151.12082489 44.41438156 151.11722961 45.52784454 151.11352539 46.67504883 C151.11367142 47.855961 151.11381744 49.03687317 151.1139679 50.25357056 C151.11339153 53.48252775 151.10838389 56.71144134 151.10139394 59.94038987 C151.09513323 63.31830546 151.09455445 66.69622196 151.09336853 70.07414246 C151.09026322 76.46656627 151.08206063 82.85897294 151.07201904 89.25138921 C151.05973527 97.24506347 151.05426905 105.23874053 151.04882812 113.23242188 C151.03909475 127.4882946 151.01906148 141.74412992 151 156 C128.89 156 106.78 156 84 156 C82.02 149.73 80.04 143.46 78 137 C76.40628475 133.45787068 74.89070226 130.21727368 73 126.875 C72.60039063 126.12992187 72.20078125 125.38484375 71.7890625 124.6171875 C68.81268022 119.15732701 65.4733038 114.20995569 62 109 C77.18 109 92.36 109 108 109 C108 86.56 108 64.12 108 41 C85.23 41 62.46 41 39 41 C39 56.84 39 72.68 39 89 C33.72 86.36 28.44 83.72 23 81 C15.29170271 77.84660566 8.01881796 75.40564539 0 73 C0 48.91 0 24.82 0 0 Z " fill="#80C156" transform="translate(534,332)"/>
<path d="M0 0 C22.44 0 44.88 0 68 0 C69.65 5.61 71.3 11.22 73 17 C74.18520637 20.05696521 75.32119289 22.89699185 76.75 25.8125 C77.245 26.85096069 77.245 26.85096069 77.75 27.91040039 C80.63485219 33.73325387 84.21804855 38.74919138 88.3125 43.77734375 C90 46 90 46 90 48 C74.49 48 58.98 48 43 48 C43 71.1 43 94.2 43 118 C65.77 118 88.54 118 112 118 C112 101.5 112 85 112 68 C116.19290067 69.67716027 119.72651253 71.51982313 123.625 73.75 C133.46871077 79.03141107 133.46871077 79.03141107 151 84 C151 108.09 151 132.18 151 157 C122.20264976 157.16065467 122.20264976 157.16065467 107.93063259 157.20101547 C100.22619649 157.22314113 92.52193451 157.25118673 84.81762695 157.30175781 C78.06138205 157.34608444 71.30532569 157.36916389 64.54894447 157.37950897 C61.97625071 157.38687777 59.4035668 157.40126716 56.8309536 157.42292023 C53.21675013 157.4521197 49.60331684 157.45594894 45.98901367 157.45410156 C44.40728111 157.47567322 44.40728111 157.47567322 42.79359436 157.49768066 C31.0086591 157.43285194 20.68722152 153.25578787 12.0625 145.1875 C7.55979848 140.37426734 4.53707392 135.06237139 2 129 C1.47975754 127.8082869 1.47975754 127.8082869 0.94900513 126.59249878 C-0.42407381 121.39465079 -0.26116112 116.38150673 -0.22705078 111.02783203 C-0.22734283 109.82726669 -0.22763489 108.62670135 -0.22793579 107.38975525 C-0.2267842 104.1112206 -0.21677885 100.83285842 -0.20278788 97.55435801 C-0.19025447 94.12306886 -0.18910796 90.69177604 -0.18673706 87.26046753 C-0.18052994 80.76888807 -0.16412957 74.27737628 -0.14403808 67.78582656 C-0.11945792 59.66712655 -0.1085353 51.54841546 -0.09765625 43.4296875 C-0.07819752 28.95307235 -0.03812978 14.47660475 0 0 Z " fill="#8FCD64" transform="translate(338,533)"/>
<path d="M0 0 C0.97450104 -0.00137466 1.94900208 -0.00274933 2.95303345 -0.00416565 C4.010392 -0.00057037 5.06775055 0.0030249 6.15715027 0.00672913 C7.27954102 0.0065831 8.40193176 0.00643707 9.55833435 0.00628662 C13.26471394 0.00698276 16.97104314 0.01476124 20.67741394 0.02259827 C23.24859591 0.02446351 25.81977824 0.02588691 28.39096069 0.02688599 C34.4646421 0.03031278 40.53830274 0.03819269 46.61197633 0.04823548 C54.2073531 0.06052107 61.80273283 0.06598587 69.39811707 0.07142639 C82.943053 0.0811586 96.48794954 0.10119206 110.03288269 0.12025452 C110.03288269 24.21025452 110.03288269 48.30025452 110.03288269 73.12025452 C104.75288269 74.77025452 99.47288269 76.42025452 94.03288269 78.12025452 C86.93298249 80.80856624 80.90511909 83.52633904 74.77507019 87.98353577 C73.03288269 89.12025452 73.03288269 89.12025452 71.03288269 89.12025452 C71.03288269 72.95025452 71.03288269 56.78025452 71.03288269 40.12025452 C48.26288269 40.12025452 25.49288269 40.12025452 2.03288269 40.12025452 C2.03288269 62.89025452 2.03288269 85.66025452 2.03288269 109.12025452 C17.54288269 109.12025452 33.05288269 109.12025452 49.03288269 109.12025452 C47.05288269 112.09025452 45.07288269 115.06025452 43.03288269 118.12025452 C35.43571543 130.49827929 30.59139925 141.88618828 27.03288269 156.12025452 C4.59288269 156.12025452 -17.84711731 156.12025452 -40.96711731 156.12025452 C-41.12777198 126.3232752 -41.12777198 126.3232752 -41.16813278 111.55953121 C-41.19026141 103.58854529 -41.21831416 95.61772759 -41.26887512 87.64686584 C-41.30889988 81.33398113 -41.33458709 75.02122362 -41.34347129 68.70821553 C-41.34865994 65.36923645 -41.36288449 62.03090762 -41.39003754 58.69199181 C-41.41922309 54.95326357 -41.42306681 51.21528016 -41.42121887 47.47645569 C-41.43559998 46.38456436 -41.44998108 45.29267303 -41.46479797 44.16769409 C-41.39854893 31.71906263 -36.7961472 21.25845516 -28.52961731 12.05775452 C-20.98655925 4.77380914 -10.50196316 -0.01147756 0 0 Z " fill="#9CD76C" transform="translate(378.9671173095703,331.87974548339844)"/>
<path d="M0 0 C22.44 0 44.88 0 68 0 C68.20081834 30.25663019 68.20081834 30.25663019 68.25126934 45.25614738 C68.2789223 53.35206735 68.31396905 61.44772832 68.37719727 69.54345703 C68.42725242 75.95560152 68.45934277 82.36755012 68.47044247 88.77988458 C68.47692426 92.17088358 68.49200542 95.56132249 68.52865028 98.95214081 C68.56517026 102.75065241 68.56993545 106.5480196 68.56762695 110.34667969 C68.59459152 112.00717598 68.59459152 112.00717598 68.62210083 113.70121765 C68.54216787 125.92885189 63.71500161 136.32611065 55.0859375 144.90234375 C45.64910443 153.51937472 37.05856032 156.3105008 24.39501953 156.22705078 C23.23346848 156.22734283 22.07191742 156.22763489 20.87516785 156.22793579 C17.04430616 156.22654492 13.21364012 156.2109948 9.3828125 156.1953125 C6.72337515 156.19158151 4.06394857 156.18863653 1.4045105 156.18673706 C-4.87457426 156.18053071 -11.15358905 156.1641314 -17.43264306 156.14403808 C-25.28581109 156.11945514 -33.13899057 156.10853469 -40.9921875 156.09765625 C-54.99484612 156.07819929 -68.99735214 156.03813126 -83 156 C-83 131.91 -83 107.82 -83 83 C-76.07 80.69 -69.14 78.38 -62 76 C-55.43397955 72.83958718 -55.43397955 72.83958718 -48.95703125 69.50390625 C-46 68 -46 68 -44 68 C-44 84.17 -44 100.34 -44 117 C-21.23 117 1.54 117 25 117 C25 93.9 25 70.8 25 47 C9.82 47 -5.36 47 -21 47 C-19.4061928 43.015482 -18.36785576 40.97332048 -15.875 37.75 C-12.70406612 33.29480479 -10.17764149 28.72600602 -7.8125 23.8125 C-7.49200684 23.16700195 -7.17151367 22.52150391 -6.84130859 21.85644531 C-3.47423699 14.65692038 -2.13561246 8.00854671 0 0 Z " fill="#72B64F" transform="translate(617,534)"/>
<path d="M0 0 C9.1884375 -0.2475 9.1884375 -0.2475 18.5625 -0.5 C20.48263916 -0.57283203 22.40277832 -0.64566406 24.38110352 -0.72070312 C25.92199243 -0.74409183 27.46293118 -0.764472 29.00390625 -0.78125 C29.78858276 -0.82217773 30.57325928 -0.86310547 31.38171387 -0.90527344 C33.82713487 -0.90834124 35.6873877 -0.81130732 38 0 C39.4528656 1.79907227 39.4528656 1.79907227 40.88476562 3.98632812 C43.43195554 7.24978964 44.67283315 7.93556572 48.81248474 8.75085449 C53.81786863 9.12850691 58.82421675 9.05705278 63.83984375 9 C65.69073692 9.00752337 67.54161885 9.01856158 69.39247131 9.03295898 C74.24753827 9.06133122 79.10128279 9.04214355 83.95629883 9.01287842 C89.79012051 8.98767703 95.62386325 9.02184625 101.45764923 9.04600525 C110.30586838 9.07602975 119.15084044 9.03088038 128 9 C128 26.16 128 43.32 128 61 C122.16183594 60.99097656 116.32367187 60.98195313 110.30859375 60.97265625 C106.60341556 60.98249766 102.89847114 60.99439325 99.19335938 61.01367188 C93.31612868 61.04405745 87.43955364 61.06695645 81.56225586 61.04467773 C76.82207077 61.02718614 72.08310239 61.04376625 67.34306526 61.08367729 C65.53745686 61.09295018 63.73174274 61.09007836 61.92617607 61.07469368 C50.81355271 60.53079331 50.81355271 60.53079331 41.39868164 65.43139648 C40.01857558 67.24686331 39.01844983 68.96310033 38 71 C25.46 71 12.92 71 0 71 C0 47.57 0 24.14 0 0 Z " fill="#589E3E" transform="translate(731,428)"/>
<path d="M0 0 C9.1884375 -0.2475 9.1884375 -0.2475 18.5625 -0.5 C20.48263916 -0.57283203 22.40277832 -0.64566406 24.38110352 -0.72070312 C25.92199243 -0.74409183 27.46293118 -0.764472 29.00390625 -0.78125 C29.78858276 -0.82217773 30.57325928 -0.86310547 31.38171387 -0.90527344 C33.82713487 -0.90834124 35.6873877 -0.81130732 38 0 C39.4528656 1.79907227 39.4528656 1.79907227 40.88476562 3.98632812 C43.43195554 7.24978964 44.67283315 7.93556572 48.81248474 8.75085449 C53.81786863 9.12850691 58.82421675 9.05705278 63.83984375 9 C65.69073692 9.00752337 67.54161885 9.01856158 69.39247131 9.03295898 C74.24753827 9.06133122 79.10128279 9.04214355 83.95629883 9.01287842 C89.79012051 8.98767703 95.62386325 9.02184625 101.45764923 9.04600525 C110.30586838 9.07602975 119.15084044 9.03088038 128 9 C128 26.16 128 43.32 128 61 C122.16183594 60.99097656 116.32367187 60.98195313 110.30859375 60.97265625 C106.60341556 60.98249766 102.89847114 60.99439325 99.19335938 61.01367188 C93.31612868 61.04405745 87.43955364 61.06695645 81.56225586 61.04467773 C76.82207077 61.02718614 72.08310239 61.04376625 67.34306526 61.08367729 C65.53745686 61.09295018 63.73174274 61.09007836 61.92617607 61.07469368 C50.81355271 60.53079331 50.81355271 60.53079331 41.39868164 65.43139648 C40.01857558 67.24686331 39.01844983 68.96310033 38 71 C25.46 71 12.92 71 0 71 C0 47.57 0 24.14 0 0 Z " fill="#52973B" transform="translate(731,524)"/>
<path d="M0 0 C1.60862843 0.00196654 3.21768411 0.04488156 4.82421875 0.12695312 C5.96213867 0.13903809 5.96213867 0.13903809 7.12304688 0.15136719 C9.92027429 0.1927993 12.71610758 0.30449201 15.51171875 0.40820312 C24.91671875 0.65570313 24.91671875 0.65570313 34.51171875 0.90820312 C34.51171875 24.33820313 34.51171875 47.76820313 34.51171875 71.90820312 C28.24171875 72.09382813 21.97171875 72.27945313 15.51171875 72.47070312 C12.56685547 72.59360718 12.56685547 72.59360718 9.5625 72.71899414 C7.98312898 72.74531172 6.40369629 72.76823817 4.82421875 72.78710938 C4.02306641 72.83315308 3.22191406 72.87919678 2.39648438 72.92663574 C-0.18126588 72.93018094 -2.06449672 72.80711179 -4.48828125 71.90820312 C-6.20349121 69.88328552 -6.20349121 69.88328552 -7.92773438 67.421875 C-10.6438833 64.03592218 -11.97263131 63.02264622 -16.27246094 62.06834412 C-21.10104979 61.65467877 -25.92847811 61.73827452 -30.76953125 61.81054688 C-32.55173377 61.80488852 -34.33392771 61.79527066 -36.11608887 61.78187561 C-40.78557975 61.75733679 -45.45323808 61.78627641 -50.12255859 61.82666016 C-55.73608931 61.86396254 -61.34962399 61.83431155 -66.9631958 61.81598663 C-75.47265356 61.795653 -83.97769228 61.85993527 -92.48828125 61.90820312 C-92.48828125 44.74820313 -92.48828125 27.58820313 -92.48828125 9.90820312 C-86.80609375 9.92882812 -81.12390625 9.94945312 -75.26953125 9.97070312 C-71.66002976 9.96597225 -68.05083805 9.95888752 -64.44140625 9.94335938 C-58.71779381 9.91895889 -52.99507767 9.90306373 -47.27148438 9.93896484 C-42.65439484 9.96737862 -38.03886964 9.9566908 -33.42185974 9.91940308 C-31.66450823 9.91198233 -29.90703939 9.91842119 -28.14979553 9.9392395 C-18.55312643 10.38580447 -18.55312643 10.38580447 -9.90722656 7.0880127 C-8.62611848 5.66841285 -7.38730019 4.20897375 -6.20349121 2.70727539 C-4.10870325 0.51006629 -2.9903111 0.25278176 0 0 Z " fill="#7FBE55" transform="translate(257.48828125,427.091796875)"/>
<path d="M0 0 C23.43 0 46.86 0 71 0 C71.185625 6.435 71.37125 12.87 71.5625 19.5 C71.68540405 22.52317383 71.68540405 22.52317383 71.81079102 25.60742188 C71.83710731 27.22780996 71.86003406 28.84825812 71.87890625 30.46875 C71.92494995 31.29149414 71.97099365 32.11423828 72.01843262 32.96191406 C72.02195303 35.5873634 71.90077178 37.52653199 71 40 C68.9750824 41.73632812 68.9750824 41.73632812 66.51367188 43.46679688 C63.14453311 46.16095789 62.11797777 47.47399677 61.16014099 51.74450684 C60.7468689 56.51341372 60.83003425 61.28099595 60.90234375 66.0625 C60.89668525 67.82228248 60.8870672 69.58205628 60.87367249 71.34179688 C60.84913593 75.95211268 60.87807067 80.56057213 60.91845703 85.17071533 C60.9557625 90.71332802 60.92610788 96.25594492 60.90778351 101.79859924 C60.8874512 110.20017624 60.95173068 118.59727732 61 127 C44.17 127 27.34 127 10 127 C10.03222656 121.39 10.06445312 115.78 10.09765625 110 C10.09803778 106.43604325 10.09576681 102.87248042 10.08398438 99.30859375 C10.06555208 93.65728122 10.056695 88.00713604 10.10620117 82.35595703 C10.14552183 77.79712897 10.14077801 73.24024085 10.10607719 68.68139648 C10.10049823 66.94634926 10.11053061 65.21117619 10.13676643 63.47631836 C10.60804163 53.88413683 10.60804163 53.88413683 6.95396423 45.44006348 C5.34888641 44.15654908 3.70616634 42.91831235 2.0249176 41.73632812 C-0.42583449 39.63485507 -0.72683345 38.59168398 -1.02172852 35.41992188 C-1.01951462 33.76884623 -0.97116207 32.11724766 -0.87890625 30.46875 C-0.86984253 29.69047852 -0.86077881 28.91220703 -0.85144043 28.11035156 C-0.80480753 25.23899747 -0.67915101 22.36936256 -0.5625 19.5 C-0.376875 13.065 -0.19125 6.63 0 0 Z " fill="#4C9137" transform="translate(524,733)"/>
<path d="M0 0 C1.60348857 0.00220562 3.20753513 0.05022923 4.80834961 0.14282227 C5.56595581 0.15188599 6.32356201 0.16094971 7.10412598 0.17028809 C9.89092472 0.21681157 12.67595313 0.34246575 15.46069336 0.45922852 C21.71006836 0.64485352 27.95944336 0.83047852 34.39819336 1.02172852 C34.39819336 24.45172852 34.39819336 47.88172852 34.39819336 72.02172852 C28.12819336 72.20735352 21.85819336 72.39297852 15.39819336 72.58422852 C12.45333008 72.70713257 12.45333008 72.70713257 9.44897461 72.83251953 C7.86960359 72.85883711 6.2901709 72.88176357 4.71069336 72.90063477 C3.90954102 72.94667847 3.10838867 72.99272217 2.28295898 73.04016113 C-0.29479128 73.04370633 -2.17802211 72.92063718 -4.60180664 72.02172852 C-6.3170166 69.99681091 -6.3170166 69.99681091 -8.04125977 67.53540039 C-10.75740869 64.14944757 -12.0861567 63.13617161 -16.38598633 62.18186951 C-21.21457518 61.76820416 -26.0420035 61.85179991 -30.88305664 61.92407227 C-32.66525916 61.91841391 -34.4474531 61.90879605 -36.22961426 61.895401 C-40.89910514 61.87086218 -45.56676347 61.8998018 -50.23608398 61.94018555 C-55.8496147 61.97748793 -61.46314938 61.94783694 -67.07672119 61.92951202 C-75.58617895 61.90917839 -84.09121767 61.97346066 -92.60180664 62.02172852 C-92.60180664 45.19172852 -92.60180664 28.36172852 -92.60180664 11.02172852 C-87.0034082 11.05395508 -81.40500977 11.08618164 -75.63696289 11.11938477 C-72.07756334 11.11976636 -68.51855796 11.11749264 -64.95922852 11.10571289 C-59.31678601 11.08729008 -53.67551158 11.07838196 -48.03320312 11.12792969 C-43.48085397 11.1672886 -38.93044632 11.16247687 -34.37808037 11.12780571 C-32.64665068 11.12223246 -30.91509452 11.13223185 -29.18385506 11.15849495 C-19.47693112 11.57172433 -19.47693112 11.57172433 -10.80833435 7.97569275 C-9.34428686 6.3724567 -7.92149651 4.73018794 -6.55055237 3.04664612 C-4.29317764 0.70103594 -3.19787311 0.30091655 0 0 Z " fill="#76B74F" transform="translate(257.601806640625,522.978271484375)"/>
<path d="M0 0 C23.43 0 46.86 0 71 0 C71.309375 9.6525 71.309375 9.6525 71.625 19.5 C71.71604004 21.51544922 71.80708008 23.53089844 71.90087891 25.60742188 C71.930119 27.22779715 71.95559325 28.84824659 71.9765625 30.46875 C72.053302 31.70286621 72.053302 31.70286621 72.1315918 32.96191406 C72.13558325 35.64097463 72.00839796 37.50816305 71 40 C68.74923706 41.73632812 68.74923706 41.73632812 66.01367188 43.46679688 C62.36556656 46.09233798 61.16819745 47.32194936 60.07113647 51.74450684 C59.61819473 56.51303772 59.71741694 61.27915051 59.8046875 66.0625 C59.80089637 67.82228031 59.79270072 69.58205614 59.78030396 71.34179688 C59.75956715 75.95233558 59.79830898 80.56049292 59.84979248 85.17071533 C59.8991738 90.71325975 59.87407162 96.25591529 59.86157227 101.79859924 C59.8509057 110.2005204 59.93434977 118.59676995 60 127 C43.5 127 27 127 10 127 C10.03222656 121.39 10.06445312 115.78 10.09765625 110 C10.09803778 106.43604325 10.09576681 102.87248042 10.08398438 99.30859375 C10.06555208 93.65728122 10.056695 88.00713604 10.10620117 82.35595703 C10.14552183 77.79712897 10.14077801 73.24024085 10.10607719 68.68139648 C10.10049823 66.94634926 10.11053061 65.21117619 10.13676643 63.47631836 C10.60804163 53.88413683 10.60804163 53.88413683 6.95396423 45.44006348 C5.34888641 44.15654908 3.70616634 42.91831235 2.0249176 41.73632812 C-0.42583449 39.63485507 -0.72683345 38.59168398 -1.02172852 35.41992188 C-1.01951462 33.76884623 -0.97116207 32.11724766 -0.87890625 30.46875 C-0.86984253 29.69047852 -0.86077881 28.91220703 -0.85144043 28.11035156 C-0.80480753 25.23899747 -0.67915101 22.36936256 -0.5625 19.5 C-0.376875 13.065 -0.19125 6.63 0 0 Z " fill="#519639" transform="translate(429,733)"/>
<path d="M0 0 C16.83 0 33.66 0 51 0 C50.96777344 5.6821875 50.93554688 11.364375 50.90234375 17.21875 C50.90196223 20.82827773 50.90423293 24.43741648 50.91601562 28.046875 C50.93444883 33.77061045 50.9433008 39.49319321 50.89379883 45.21679688 C50.85448212 49.83397159 50.85921915 54.44923075 50.89392281 59.06642151 C50.89950234 60.82379716 50.88946674 62.58129701 50.86323357 64.33848572 C50.39130501 74.03791525 50.39130501 74.03791525 54.04603577 82.60412598 C55.64613643 83.89933295 57.28877023 85.14429616 58.9750824 86.32507324 C61.35129656 88.29057775 61.71347472 89.19111599 62.02172852 92.21289062 C62.01952041 93.69477369 61.97138398 95.17725366 61.87890625 96.65625 C61.86984253 97.35588867 61.86077881 98.05552734 61.85144043 98.77636719 C61.80488252 101.35229165 61.67922549 103.9263004 61.5625 106.5 C61.2840625 115.1625 61.2840625 115.1625 61 124 C37.57 124 14.14 124 -10 124 C-10.185625 118.245625 -10.37125 112.49125 -10.5625 106.5625 C-10.64443604 104.76498291 -10.72637207 102.96746582 -10.81079102 101.11547852 C-10.83712017 99.66168221 -10.86004387 98.2078186 -10.87890625 96.75390625 C-10.92494995 96.02264526 -10.97099365 95.29138428 -11.01843262 94.53796387 C-11.02210831 92.0715748 -10.87037174 90.31790976 -10 88 C-7.9750824 86.09153748 -7.9750824 86.09153748 -5.51367188 84.08789062 C-1.761895 80.63455028 -0.41535354 78.13053141 0.02552032 73.00431061 C0.18234583 68.94491599 0.15926464 64.90101285 0.09765625 60.83984375 C0.10331616 59.0814905 0.11293608 57.32314596 0.12632751 55.56483459 C0.15084047 50.96275114 0.12195447 46.36253028 0.08154297 41.76062012 C0.04420653 36.22549257 0.07389762 30.69035893 0.09221649 25.15518951 C0.11253491 16.76901349 0.0482807 8.3873233 0 0 Z " fill="#70B44A" transform="translate(534,163)"/>
<path d="M0 0 C16.5 0 33 0 50 0 C50 26.4 50 52.8 50 80 C52.9348737 81.46952408 52.9348737 81.46952408 55.90649414 82.86181641 C58.34776477 84.36024922 59.51239722 85.51815511 61 88 C61.89671371 94.16247214 61.65452748 100.16049628 61.4375 106.375 C61.293125 112.19125 61.14875 118.0075 61 124 C37.57 124 14.14 124 -10 124 C-10.185625 118.225 -10.37125 112.45 -10.5625 106.5 C-10.64443604 104.69337891 -10.72637207 102.88675781 -10.81079102 101.02539062 C-10.8371129 99.5690713 -10.86003834 98.11268497 -10.87890625 96.65625 C-10.92494995 95.91987305 -10.97099365 95.18349609 -11.01843262 94.42480469 C-11.02206121 91.98961907 -10.8920058 90.27535385 -10 88 C-7.9750824 86.32507324 -7.9750824 86.32507324 -5.51367188 84.6015625 C-2.13728849 81.86853737 -1.11412057 80.51454505 -0.16014099 76.21325684 C0.2536637 71.38554115 0.16991573 66.55894063 0.09765625 61.71875 C0.10331461 59.93654748 0.11293246 58.15435354 0.12632751 56.37219238 C0.15086634 51.7027015 0.12192671 47.03504317 0.08154297 42.36572266 C0.04424058 36.75219194 0.07389158 31.13865726 0.09221649 25.52508545 C0.11255012 17.01562769 0.04826786 8.51058897 0 0 Z " fill="#75B74D" transform="translate(439,163)"/>
<path d="M0 0 C1.60862843 0.00196654 3.21768411 0.04488156 4.82421875 0.12695312 C5.96213867 0.13903809 5.96213867 0.13903809 7.12304688 0.15136719 C9.92027429 0.1927993 12.71610758 0.30449201 15.51171875 0.40820312 C24.91671875 0.65570313 24.91671875 0.65570313 34.51171875 0.90820312 C34.51171875 24.33820313 34.51171875 47.76820313 34.51171875 71.90820312 C34.18171875 71.90820312 33.85171875 71.90820312 33.51171875 71.90820312 C33.51171875 49.46820313 33.51171875 27.02820313 33.51171875 3.90820312 C20.97171875 3.90820312 8.43171875 3.90820312 -4.48828125 3.90820312 C-5.14828125 5.22820312 -5.80828125 6.54820312 -6.48828125 7.90820312 C-9.31060203 11.77475268 -11.46547551 13.7118601 -16.24691772 14.62973022 C-17.66896585 14.64694386 -19.09165782 14.63156496 -20.51318359 14.58935547 C-21.2943454 14.59023163 -22.0755072 14.59110779 -22.88034058 14.5920105 C-25.44600675 14.58785139 -28.00901313 14.54128454 -30.57421875 14.49414062 C-32.35924858 14.48294238 -34.14429691 14.47440516 -35.92935181 14.46841431 C-40.61516727 14.44556516 -45.29985711 14.38667652 -49.98522949 14.32019043 C-54.77124811 14.25868287 -59.5574496 14.23138126 -64.34375 14.20117188 C-73.7257535 14.1369288 -83.10692357 14.03459738 -92.48828125 13.90820312 C-92.48828125 12.58820313 -92.48828125 11.26820313 -92.48828125 9.90820312 C-91.50380005 9.91343994 -90.51931885 9.91867676 -89.50500488 9.92407227 C-80.20663304 9.96830507 -70.90907114 9.9703435 -61.61066437 9.93154907 C-56.83061203 9.9129491 -52.05149846 9.90898231 -47.27148438 9.93896484 C-42.65439484 9.96737862 -38.03886964 9.9566908 -33.42185974 9.91940308 C-31.66450823 9.91198233 -29.90703939 9.91842119 -28.14979553 9.9392395 C-18.55312643 10.38580447 -18.55312643 10.38580447 -9.90722656 7.0880127 C-8.62611848 5.66841285 -7.38730019 4.20897375 -6.20349121 2.70727539 C-4.10870325 0.51006629 -2.9903111 0.25278176 0 0 Z " fill="#82BC59" transform="translate(257.48828125,427.091796875)"/>
<path d="M0 0 C1.6509326 0.00124661 3.30226005 0.04528438 4.95117188 0.12695312 C5.82769409 0.13827271 6.70421631 0.14959229 7.6072998 0.16125488 C10.38049022 0.20569823 13.1483214 0.30597986 15.91992188 0.40820312 C17.81047167 0.44837245 19.70110333 0.48486716 21.59179688 0.51757812 C26.20320632 0.60532601 30.81065885 0.7431331 35.41992188 0.90820312 C35.41992188 1.89820313 35.41992188 2.88820313 35.41992188 3.90820312 C22.54992187 3.90820312 9.67992187 3.90820312 -3.58007812 3.90820312 C-4.24007812 5.22820313 -4.90007812 6.54820312 -5.58007812 7.90820312 C-6.57007813 7.90820312 -7.56007813 7.90820312 -8.58007812 7.90820312 C-9.24007812 9.55820312 -9.90007812 11.20820312 -10.58007812 12.90820312 C-37.31007813 12.90820312 -64.04007813 12.90820312 -91.58007812 12.90820312 C-91.58007812 11.91820312 -91.58007812 10.92820312 -91.58007812 9.90820312 C-90.12214844 9.91605835 -90.12214844 9.91605835 -88.63476562 9.92407227 C-79.45411967 9.96830764 -70.27429402 9.97034132 -61.09361267 9.93154907 C-56.37409032 9.91295012 -51.65551874 9.90898005 -46.93603516 9.93896484 C-42.37729337 9.96738146 -37.82013579 9.95668771 -33.26147461 9.91940308 C-31.52645183 9.91198309 -29.7913102 9.91841906 -28.05639648 9.9392395 C-18.56154349 10.37945795 -18.56154349 10.37945795 -10.0201416 7.0880127 C-8.74125887 5.66640776 -7.50284587 4.20689624 -6.31640625 2.70727539 C-4.18365781 0.49745772 -3.02677548 0.25026719 0 0 Z " fill="#90CB6A" transform="translate(256.580078125,620.091796875)"/>
<path d="M0 0 C0.99 0.495 0.99 0.495 2 1 C1.34 1.66 0.68 2.32 0 3 C0.495 3.99 0.495 3.99 1 5 C-22.12957403 19.37020655 -43.41094013 19.34531247 -70 19 C-70 31.21 -70 43.42 -70 56 C-70.66 55.67 -71.32 55.34 -72 55 C-72 41.8 -72 28.6 -72 15 C-55 14.75 -55 14.75 -49.74609375 14.70214844 C-33.40855631 14.42406706 -17.30328392 11.13595071 -3.375 2.125 C-2.26125 1.42375 -1.1475 0.7225 0 0 Z " fill="#77BA5A" transform="translate(692,718)"/>
<path d="M0 0 C22.77 0 45.54 0 69 0 C69 0.99 69 1.98 69 3 C46.89 3 24.78 3 2 3 C2 15.21 2 27.42 2 40 C1.34 40 0.68 40 0 40 C0 26.8 0 13.6 0 0 Z " fill="#82C460" transform="translate(430,734)"/>
<path d="M0 0 C0.33 0 0.66 0 1 0 C1 23.1 1 46.2 1 70 C-22.43 70 -45.86 70 -70 70 C-70 69.01 -70 68.02 -70 67 C-46.9 67 -23.8 67 0 67 C0 44.89 0 22.78 0 0 Z " fill="#87C563" transform="translate(643,584)"/>
<path d="M0 0 C22.77 0 45.54 0 69 0 C69 0.99 69 1.98 69 3 C46.89 3 24.78 3 2 3 C2 14.88 2 26.76 2 39 C1.34 39 0.68 39 0 39 C0 26.13 0 13.26 0 0 Z " fill="#75B855" transform="translate(525,734)"/>
<path d="M0 0 C0.5625 1.9375 0.5625 1.9375 1 4 C-0.71987206 5.71987206 -2.90877029 5.11974788 -5.20132446 5.12442017 C-6.31802017 5.11902725 -6.31802017 5.11902725 -7.45727539 5.11352539 C-8.23770706 5.11367142 -9.01813873 5.11381744 -9.82221985 5.1139679 C-12.4140598 5.11326858 -15.00582878 5.10547536 -17.59765625 5.09765625 C-19.3898464 5.09579213 -21.18203706 5.0943682 -22.97422791 5.09336853 C-27.70070797 5.08954284 -32.42715752 5.07971212 -37.15362549 5.06866455 C-41.9728555 5.05845153 -46.79209042 5.05387115 -51.61132812 5.04882812 C-61.07423219 5.03808989 -70.53711356 5.02101286 -80 5 C-80 4.01 -80 3.02 -80 2 C-78.51875389 1.9845388 -78.51875389 1.9845388 -77.00758362 1.96876526 C-67.72194457 1.87120126 -58.4363751 1.76848377 -49.15084934 1.66066074 C-44.37655052 1.60538912 -39.60224562 1.55196248 -34.82788086 1.50268555 C-30.22428307 1.45510435 -25.62076219 1.40276407 -21.01725578 1.34705925 C-19.25692587 1.3266073 -17.49657485 1.30789902 -15.73620796 1.29092598 C-13.27922012 1.26694456 -10.82237901 1.23688191 -8.36547852 1.20532227 C-7.63036545 1.1995668 -6.89525238 1.19381134 -6.13786316 1.18788147 C-2.78273479 1.42956431 -2.78273479 1.42956431 0 0 Z " fill="#99D071" transform="translate(245,532)"/>
<path d="M0 0 C26.73 0 53.46 0 81 0 C81 0.99 81 1.98 81 3 C54.6 3 28.2 3 1 3 C0.67 2.01 0.34 1.02 0 0 Z " fill="#67AC4B" transform="translate(778,630)"/>
<path d="M0 0 C26.73 0 53.46 0 81 0 C81 0.99 81 1.98 81 3 C54.6 3 28.2 3 1 3 C0.67 2.01 0.34 1.02 0 0 Z " fill="#68AB4B" transform="translate(778,534)"/>
<path d="M0 0 C26.73 0 53.46 0 81 0 C80.67 0.99 80.34 1.98 80 3 C53.93 3 27.86 3 1 3 C0.67 2.01 0.34 1.02 0 0 Z " fill="#69AC4A" transform="translate(778,438)"/>
<path d="M0 0 C26.07 0 52.14 0 79 0 C74.70914497 3.21814127 72.69250343 3.41957687 67.66113281 3.34057617 C66.56297997 3.34123329 66.56297997 3.34123329 65.44264221 3.34190369 C63.02919601 3.33981808 60.61644944 3.31649855 58.203125 3.29296875 C56.52732727 3.28737197 54.85152462 3.28310226 53.17572021 3.28010559 C48.76973873 3.26866325 44.36405496 3.23920143 39.95819092 3.20599365 C35.4604495 3.17527955 30.96265987 3.16159739 26.46484375 3.14648438 C17.64309852 3.11433107 8.82157404 3.06314215 0 3 C0 2.01 0 1.02 0 0 Z " fill="#9AD270" transform="translate(165,438)"/>
<path d="M0 0 C0.33 0 0.66 0 1 0 C1 24.09 1 48.18 1 73 C-0.98 73.99 -0.98 73.99 -3 75 C-3 75.66 -3 76.32 -3 77 C-6.46153846 80 -6.46153846 80 -9 80 C-9 90.89 -9 101.78 -9 113 C-9.33 113 -9.66 113 -10 113 C-10.19896452 108.01976491 -10.34347304 103.04187955 -10.43945312 98.05859375 C-10.47948848 96.36677727 -10.53393834 94.6752342 -10.60351562 92.984375 C-10.70148194 90.54097987 -10.74611585 88.10126208 -10.78125 85.65625 C-10.82254028 84.91008423 -10.86383057 84.16391846 -10.90637207 83.3951416 C-10.90836151 81.02412418 -10.77904529 79.24685972 -10 77 C-8.19969177 75.23155212 -8.19969177 75.23155212 -6.01147461 73.43530273 C-2.00895748 69.79585601 -1.35334695 67.23445925 -1.01586914 61.86547852 C-0.95453824 59.03415971 -0.98956414 56.21022275 -1.03515625 53.37890625 C-1.0301698 51.86814278 -1.02151978 50.35738739 -1.00938416 48.84666443 C-0.98671815 44.89275535 -1.01059195 40.94052296 -1.04541016 36.98675537 C-1.07941154 32.16353801 -1.05942031 27.34029705 -1.04637051 22.51702023 C-1.03707968 18.76971129 -1.0362113 15.02302778 -1.06056213 11.27577209 C-1.0634877 10.59079651 -1.06641327 9.90582092 -1.06942749 9.2000885 C-1.0778221 7.34936285 -1.09093916 5.49866032 -1.10438538 3.64796448 C-1 1 -1 1 0 0 Z " fill="#84C15A" transform="translate(535,173)"/>
<path d="M0 0 C0.66 0.33 1.32 0.66 2 1 C2.18569887 10.26646815 2.3276746 19.53229204 2.41449738 28.80021763 C2.45617777 33.10421722 2.51266858 37.40694022 2.60351562 41.71020508 C2.690707 45.86651502 2.73832789 50.02160064 2.75901794 54.17875481 C2.77375338 55.76129363 2.80253112 57.34376844 2.84584045 58.92578316 C3.17081263 71.29298354 3.17081263 71.29298354 0.23608398 75.57174683 C-4.65543111 80 -4.65543111 80 -8 80 C-8 90.89 -8 101.78 -8 113 C-8.33 113 -8.66 113 -9 113 C-9.19870375 108.00145423 -9.3433522 103.00523473 -9.43945312 98.00366211 C-9.47953163 96.30501236 -9.53401432 94.606636 -9.60351562 92.90893555 C-9.70128881 90.45813555 -9.74607282 88.0109969 -9.78125 85.55859375 C-9.82254028 84.80726669 -9.86383057 84.05593964 -9.90637207 83.28184509 C-9.90833414 80.94320967 -9.7996559 79.20459546 -9 77 C-7.20092773 75.47401428 -7.20092773 75.47401428 -5.01367188 73.96484375 C-2.00933024 71.60786342 -1.10653424 70.46957291 -0.24914551 66.69044495 C0.02143574 62.4430585 0.05758036 58.25664689 0 54.00390625 C0.00752571 52.44447307 0.01856602 50.88505325 0.03295898 49.32566833 C0.06129864 45.23990304 0.04216698 41.15571171 0.01287842 37.07000732 C-0.00857151 32.89357414 0.0152424 28.71742017 0.03515625 24.54101562 C0.0675382 16.36027856 0.04973242 8.1806482 0 0 Z " fill="#89C55F" transform="translate(439,173)"/>
<path d="M0 0 C14.19 0.33 28.38 0.66 43 1 C43 2.32 43 3.64 43 5 C38.91068318 5.05001046 34.82148859 5.08600357 30.73193359 5.10986328 C29.34518324 5.11982603 27.95845335 5.13340118 26.57177734 5.15087891 C9.28507806 5.36306222 9.28507806 5.36306222 3 3 C2.01 2.01 1.02 1.02 0 0 Z " fill="#73B352" transform="translate(361,732)"/>
<path d="M0 0 C1.485 0.99 1.485 0.99 3 2 C3.35644531 4.91967773 3.35644531 4.91967773 3.328125 8.68359375 C3.32661438 9.36314621 3.32510376 10.04269867 3.32354736 10.74284363 C3.31413317 12.97478243 3.28254765 15.20578813 3.25 17.4375 C3.23807647 18.97118499 3.22701477 20.50487692 3.21679688 22.03857422 C3.10070955 35.70140755 2.64612729 49.35227939 2 63 C1.67 63 1.34 63 1 63 C-0.30792356 49.89127344 -0.1128137 36.78250685 -0.0625 23.625 C-0.05747437 21.32812598 -0.05291335 19.03125089 -0.04882812 16.734375 C-0.03790811 11.1562264 -0.02125447 5.5781183 0 0 Z " fill="#5E9D43" transform="translate(629,783)"/>
<path d="M0 0 C1.61648438 0.01353516 1.61648438 0.01353516 3.265625 0.02734375 C4.08546875 0.03894531 4.9053125 0.05054688 5.75 0.0625 C5.75 1.0525 5.75 2.0425 5.75 3.0625 C-16.36 3.0625 -38.47 3.0625 -61.25 3.0625 C-61.25 15.2725 -61.25 27.4825 -61.25 40.0625 C-61.91 39.7325 -62.57 39.4025 -63.25 39.0625 C-62.92 26.5225 -62.59 13.9825 -62.25 1.0625 C-58.54265625 1.07410156 -54.8353125 1.08570313 -51.015625 1.09765625 C-47.42806077 1.10545328 -43.84049747 1.11152637 -40.25292969 1.11743164 C-37.75813373 1.12246278 -35.26334072 1.12928834 -32.76855469 1.13793945 C-29.18423738 1.15005827 -25.59995904 1.1557405 -22.015625 1.16015625 C-20.89883362 1.16531754 -19.78204224 1.17047882 -18.63140869 1.17579651 C-17.59063171 1.17587204 -16.54985474 1.17594757 -15.47753906 1.17602539 C-14.10520111 1.17935631 -14.10520111 1.17935631 -12.70513916 1.18275452 C-8.35652803 0.96975635 -4.43787644 -0.04823779 0 0 Z " fill="#75B856" transform="translate(493.25,733.9375)"/>
<path d="M0 0 C8.91 0 17.82 0 27 0 C26.67 0.66 26.34 1.32 26 2 C18.08 2.33 10.16 2.66 2 3 C2 15.21 2 27.42 2 40 C1.34 39.67 0.68 39.34 0 39 C0 26.13 0 13.26 0 0 Z " fill="#78BB58" transform="translate(620,734)"/>
<path d="M0 0 C3.05075084 -0.266487 5.89626179 -0.34757146 8.9453125 -0.29296875 C9.8303244 -0.28872391 10.7153363 -0.28447906 11.62716675 -0.28010559 C14.46008445 -0.26328259 17.29229652 -0.22562425 20.125 -0.1875 C22.04295849 -0.17245782 23.96092811 -0.15876861 25.87890625 -0.14648438 C30.58621031 -0.11336727 35.29298544 -0.06156055 40 0 C40 0.99 40 1.98 40 3 C27.13 3 14.26 3 1 3 C0.34 4.32 -0.32 5.64 -1 7 C-1.625 5.1875 -1.625 5.1875 -2 3 C-1.34 2.01 -0.68 1.02 0 0 Z " fill="#7FBF5B" transform="translate(252,621)"/>
<path d="M0 0 C0.33 0 0.66 0 1 0 C1.29361028 8.09242596 1.54821345 16.18476134 1.75383663 24.27985477 C1.85053956 28.03928494 1.96036828 31.79735005 2.10083008 35.55541992 C2.23603421 39.18602557 2.33592669 42.8160833 2.41195869 46.44839287 C2.44697684 47.83015539 2.49446062 49.21166296 2.55491447 50.59254646 C3.01484732 61.37516632 3.01484732 61.37516632 0.51174927 65.38278198 C-2.57170342 68.53757407 -6.07285679 70.97692623 -10 73 C-10.375 70.875 -10.375 70.875 -10 68 C-7.46041889 64.63001617 -5.0200229 62.34000763 -1 61 C-0.67 40.87 -0.34 20.74 0 0 Z " fill="#83C25C" transform="translate(630,182)"/>
<path d="M0 0 C15.51 0 31.02 0 47 0 C47.495 1.485 47.495 1.485 48 3 C41.48558999 3.07589036 34.9712934 3.12853202 28.45654297 3.16479492 C26.23905172 3.17990753 24.02159047 3.20039826 21.80419922 3.22631836 C18.62199511 3.26259293 15.44018518 3.27970139 12.2578125 3.29296875 C10.76400558 3.31619453 10.76400558 3.31619453 9.24002075 3.33988953 C7.85881546 3.34022942 7.85881546 3.34022942 6.44970703 3.34057617 C5.6369632 3.34723801 4.82421936 3.35389984 3.98684692 3.36076355 C3.33118744 3.24171158 2.67552795 3.12265961 2 3 C1.34 2.01 0.68 1.02 0 0 Z " fill="#90C865" transform="translate(596,441)"/>
<path d="M0 0 C0.5625 1.9375 0.5625 1.9375 1 4 C-0.71987206 5.71987206 -2.90877029 5.11974788 -5.20132446 5.12442017 C-6.31802017 5.11902725 -6.31802017 5.11902725 -7.45727539 5.11352539 C-8.23770706 5.11367142 -9.01813873 5.11381744 -9.82221985 5.1139679 C-12.4140598 5.11326858 -15.00582878 5.10547536 -17.59765625 5.09765625 C-19.3898464 5.09579213 -21.18203706 5.0943682 -22.97422791 5.09336853 C-27.70070797 5.08954284 -32.42715752 5.07971212 -37.15362549 5.06866455 C-41.9728555 5.05845153 -46.79209042 5.05387115 -51.61132812 5.04882812 C-61.07423219 5.03808989 -70.53711356 5.02101286 -80 5 C-80 4.01 -80 3.02 -80 2 C-78.68 2 -77.36 2 -76 2 C-76 2.66 -76 3.32 -76 4 C-51.25 3.67 -26.5 3.34 -1 3 C-0.67 2.01 -0.34 1.02 0 0 Z " fill="#8DC766" transform="translate(245,532)"/>
<path d="M0 0 C4.58982793 -0.04964866 9.17949754 -0.08583672 13.76953125 -0.10986328 C15.32912929 -0.11988557 16.8887087 -0.13350705 18.44824219 -0.15087891 C20.69731254 -0.1752941 22.94613322 -0.1865209 25.1953125 -0.1953125 C25.8861795 -0.20563507 26.57704651 -0.21595764 27.28884888 -0.22659302 C31.57260162 -0.22757315 35.01712278 0.43394351 39 2 C39 2.33 39 2.66 39 3 C34.9247366 3.76776475 31.08994553 4.11902034 26.9453125 4.09765625 C25.83671875 4.09443359 24.728125 4.09121094 23.5859375 4.08789062 C22.44382812 4.07951172 21.30171875 4.07113281 20.125 4.0625 C18.9596875 4.05798828 17.794375 4.05347656 16.59375 4.04882812 C13.72911355 4.03708781 10.86458367 4.0206657 8 4 C8 3.67 8 3.34 8 3 C13.94 2.67 19.88 2.34 26 2 C13.13 1.505 13.13 1.505 0 1 C0 0.67 0 0.34 0 0 Z " fill="#69AB4B" transform="translate(620,733)"/>
<path d="M0 0 C3.64816598 1.3102568 6.4216294 2.90959495 9.5 5.25 C17.85173302 11.22441408 27.22177224 15.01681187 37 18 C36.67 18.66 36.34 19.32 36 20 C30.3909575 19.42193443 25.84486683 17.38908831 20.8125 15 C19.55699341 14.40638672 19.55699341 14.40638672 18.27612305 13.80078125 C11.37609402 10.41845331 5.45094834 6.4876963 0 1 C0 0.67 0 0.34 0 0 Z " fill="#7FBF5D" transform="translate(323,713)"/>
<path d="M0 0 C0.66 0.33 1.32 0.66 2 1 C1.34 1.66 0.68 2.32 0 3 C0.33 3.66 0.66 4.32 1 5 C-0.870713 6.13211434 -2.74678191 7.25538095 -4.625 8.375 C-6.19121094 9.31472656 -6.19121094 9.31472656 -7.7890625 10.2734375 C-10.82241736 11.90451153 -13.70622076 13.02076833 -17 14 C-16.67 12.68 -16.34 11.36 -16 10 C-16.66 9.67 -17.32 9.34 -18 9 C-17.3709375 8.76925781 -16.741875 8.53851562 -16.09375 8.30078125 C-10.83126861 6.29564903 -6.2150248 4.08467922 -1.59375 0.85546875 C-1.0678125 0.57316406 -0.541875 0.29085937 0 0 Z " fill="#71B352" transform="translate(692,718)"/>
<path d="M0 0 C8.58 0.66 17.16 1.32 26 2 C25.67 2.66 25.34 3.32 25 4 C22.14524694 4.08156437 19.29286435 4.14076372 16.4375 4.1875 C15.23770508 4.22520508 15.23770508 4.22520508 14.01367188 4.26367188 C8.55205195 4.33054885 4.87075897 3.4909519 0 1 C0 0.67 0 0.34 0 0 Z " fill="#82C361" transform="translate(361,732)"/>
<path d="M0 0 C3.62276315 1.3255581 6.63505348 2.94346955 9.8125 5.125 C10.60269531 5.66382813 11.39289063 6.20265625 12.20703125 6.7578125 C12.79871094 7.16773438 13.39039063 7.57765625 14 8 C13.67 8.66 13.34 9.32 13 10 C9.74035658 8.51222697 7.06830707 6.64333184 4.25 4.4375 C3.45078125 3.81746094 2.6515625 3.19742188 1.828125 2.55859375 C1.22484375 2.04425781 0.6215625 1.52992188 0 1 C0 0.67 0 0.34 0 0 Z " fill="#74B152" transform="translate(323,713)"/>
<path d="M0 0 C0.33 0.99 0.66 1.98 1 3 C-1.31 4.98 -3.62 6.96 -6 9 C-6.66 8.67 -7.32 8.34 -8 8 C-5.36 5.36 -2.72 2.72 0 0 Z " fill="#7CB956" transform="translate(535,240)"/>
<path d="M0 0 C0 0.66 0 1.32 0 2 C-3.71888239 1.49287967 -6.73454239 0.88391785 -10 -1 C-5.92224809 -1.9267618 -3.57818963 -2.33958553 0 0 Z " fill="#6DAE53" transform="translate(670,732)"/>
<path d="M0 0 C0.66 0.33 1.32 0.66 2 1 C1.34 1.66 0.68 2.32 0 3 C0.33 3.66 0.66 4.32 1 5 C-0.98 5.99 -0.98 5.99 -3 7 C-3.66 5.68 -4.32 4.36 -5 3 C-2.625 1.4375 -2.625 1.4375 0 0 Z " fill="#6BAD4C" transform="translate(692,718)"/>
</svg>
